<mxfile host="app.diagrams.net" modified="2020-11-17T14:39:17.315Z" agent="5.0 (Windows NT 10.0; Win64; x64) AppleWebKit/537.36 (KHTML, like Gecko) Chrome/86.0.4240.198 Safari/537.36" etag="Htzi_WDT4GE87yna5ryl" version="13.9.9" type="github">
  <diagram id="SL32rtM2wAZGgII5a59b" name="Page-1">
    <mxGraphModel dx="1422" dy="1969" grid="1" gridSize="10" guides="1" tooltips="1" connect="1" arrows="1" fold="1" page="1" pageScale="1" pageWidth="827" pageHeight="1169" math="0" shadow="0">
      <root>
        <mxCell id="0" />
        <mxCell id="1" parent="0" />
        <mxCell id="LXSSktCqg1_w_sTUEPSr-1" value="Inhalt" style="rounded=1;whiteSpace=wrap;html=1;fontSize=24;" vertex="1" parent="1">
          <mxGeometry x="40" y="160" width="120" height="60" as="geometry" />
        </mxCell>
        <mxCell id="LXSSktCqg1_w_sTUEPSr-2" value="Workflow" style="rounded=1;whiteSpace=wrap;html=1;fontSize=24;" vertex="1" parent="1">
          <mxGeometry x="200" y="160" width="120" height="60" as="geometry" />
        </mxCell>
        <mxCell id="LXSSktCqg1_w_sTUEPSr-3" value="Workflow Schritte" style="rounded=1;whiteSpace=wrap;html=1;fontSize=24;" vertex="1" parent="1">
          <mxGeometry x="360" y="160" width="220" height="60" as="geometry" />
        </mxCell>
        <mxCell id="LXSSktCqg1_w_sTUEPSr-4" value="Inhaltselement&lt;br&gt;(Maske anlegen)" style="rounded=1;whiteSpace=wrap;html=1;fontSize=24;" vertex="1" parent="1">
          <mxGeometry x="640" y="160" width="200" height="60" as="geometry" />
        </mxCell>
        <mxCell id="LXSSktCqg1_w_sTUEPSr-5" value="Start Action" style="rounded=1;whiteSpace=wrap;html=1;fontSize=24;" vertex="1" parent="1">
          <mxGeometry x="360" y="40" width="180" height="60" as="geometry" />
        </mxCell>
        <mxCell id="LXSSktCqg1_w_sTUEPSr-6" value="Workflows" style="rounded=1;whiteSpace=wrap;html=1;fontSize=24;" vertex="1" parent="1">
          <mxGeometry x="1080" y="160" width="120" height="60" as="geometry" />
        </mxCell>
        <mxCell id="LXSSktCqg1_w_sTUEPSr-7" value="DS&lt;br&gt;(List: Ansicht und Bearbeiten (Nochmal?)importieren)" style="rounded=1;whiteSpace=wrap;html=1;fontSize=24;" vertex="1" parent="1">
          <mxGeometry x="230" y="-80" width="597" height="60" as="geometry" />
        </mxCell>
        <mxCell id="LXSSktCqg1_w_sTUEPSr-8" value="LBB" style="rounded=1;whiteSpace=wrap;html=1;fontSize=24;" vertex="1" parent="1">
          <mxGeometry x="700" y="-200" width="120" height="60" as="geometry" />
        </mxCell>
        <mxCell id="LXSSktCqg1_w_sTUEPSr-9" value="bestimmter Workflow (Warum nach ein tag verfügbar)" style="rounded=1;whiteSpace=wrap;html=1;fontSize=24;" vertex="1" parent="1">
          <mxGeometry x="210" y="360" width="617" height="60" as="geometry" />
        </mxCell>
        <mxCell id="LXSSktCqg1_w_sTUEPSr-10" value="BGS Workflow Form Submission State (Eingabe Formular prüfen)" style="rounded=1;whiteSpace=wrap;html=1;fontSize=24;" vertex="1" parent="1">
          <mxGeometry x="1400" y="160" width="750" height="60" as="geometry" />
        </mxCell>
      </root>
    </mxGraphModel>
  </diagram>
</mxfile>
